<?xml version="1.0" standalone="no"?>
<!DOCTYPE svg PUBLIC "-//W3C//DTD SVG 20010904//EN"
 "http://www.w3.org/TR/2001/REC-SVG-20010904/DTD/svg10.dtd">
<svg version="1.0" xmlns="http://www.w3.org/2000/svg"
 width="1280.000000pt" height="853.000000pt" viewBox="0 0 1280.000000 853.000000"
 preserveAspectRatio="xMidYMid meet">

<g transform="translate(0.000000,853.000000) scale(0.100000,-0.100000)"
fill="#000000" stroke="none">
<path d="M3890 5694 c-429 -78 -851 -381 -1053 -754 -75 -139 -107 -270 -107
-441 0 -91 5 -146 19 -200 76 -297 302 -519 619 -607 89 -24 112 -26 282 -27
195 0 243 7 385 52 118 38 333 149 347 180 1 5 20 21 41 37 21 15 36 30 33 33
-3 3 -22 -9 -43 -26 -21 -17 -47 -31 -58 -32 -19 0 -19 -1 -1 -8 19 -7 19 -8
-1 -13 -32 -8 -230 1 -293 13 -114 23 -310 96 -296 110 3 3 -6 6 -21 7 -43 3
-143 64 -203 123 -64 62 -107 140 -116 210 -5 40 -4 49 13 57 10 6 156 56 324
112 305 101 415 147 521 217 184 121 313 282 352 439 20 81 21 208 1 265 -45
128 -155 217 -312 253 -89 20 -325 20 -433 0z m300 -262 c14 -10 31 -38 39
-61 12 -39 11 -49 -8 -109 -50 -152 -175 -260 -403 -351 -87 -34 -375 -120
-382 -114 -11 12 81 220 136 308 109 173 260 298 409 340 69 19 174 13 209
-13z"/>
<path d="M5634 5649 c-183 -16 -360 -98 -508 -238 -189 -180 -278 -403 -263
-666 11 -191 60 -307 182 -431 118 -121 251 -179 432 -191 327 -21 625 122
801 386 192 287 174 708 -39 936 -152 162 -340 225 -605 204z m191 -315 c71
-25 155 -110 184 -189 71 -185 12 -447 -130 -587 -83 -81 -168 -119 -279 -126
-125 -7 -189 14 -256 82 -76 78 -98 141 -98 281 0 179 55 317 174 436 120 121
253 154 405 103z"/>
<path d="M8196 5582 c-2 -4 -18 -97 -35 -207 -18 -110 -34 -206 -36 -213 -3
-9 -15 -5 -43 13 -81 53 -145 68 -282 63 -111 -4 -134 -8 -205 -36 -189 -74
-325 -244 -372 -466 -21 -100 -13 -271 17 -349 66 -173 226 -267 438 -254 123
7 202 36 311 114 23 17 23 16 18 -2 -3 -11 -9 -37 -13 -57 l-6 -38 166 0 c125
0 168 3 170 13 2 6 9 46 15 87 22 152 199 1265 208 1313 l6 27 -176 0 c-97 0
-178 -3 -181 -8z m-257 -602 c19 -5 50 -24 68 -42 103 -100 75 -369 -49 -473
-47 -40 -92 -56 -172 -62 -61 -4 -78 -1 -116 19 -71 37 -110 110 -110 209 0
143 111 314 228 349 38 12 111 12 151 0z"/>
<path d="M6586 5228 c-2 -7 -16 -89 -30 -183 -28 -180 -44 -278 -101 -631 -19
-121 -35 -230 -35 -242 0 -22 1 -22 174 -22 172 0 174 0 179 23 3 12 24 144
47 292 27 179 48 284 61 312 45 94 166 168 294 180 l62 6 37 118 c20 64 36
125 36 133 0 22 -41 30 -119 23 -91 -7 -166 -45 -231 -113 -29 -31 -55 -53
-58 -50 -3 3 0 38 7 76 6 39 9 75 6 81 -10 15 -325 12 -329 -3z"/>
<path d="M9055 5234 c-11 -2 -45 -9 -75 -15 -30 -6 -93 -29 -139 -51 -120 -57
-213 -151 -275 -280 -60 -124 -79 -212 -73 -348 3 -90 8 -114 34 -171 34 -74
87 -133 156 -173 160 -94 468 -85 679 19 40 20 84 45 97 56 l24 20 -48 94
c-27 52 -53 95 -58 95 -4 0 -29 -11 -55 -24 -81 -41 -160 -60 -257 -60 -78 -1
-97 3 -139 24 -53 27 -82 70 -93 134 l-6 36 367 0 366 0 11 27 c5 14 17 69 26
122 27 157 -3 283 -87 375 -83 90 -182 127 -340 125 -52 -1 -104 -3 -115 -5z
m160 -248 c43 -18 75 -69 75 -118 0 -71 9 -68 -211 -68 -109 0 -199 2 -199 5
0 15 35 71 67 106 72 79 183 110 268 75z"/>
<path d="M9756 5148 c-8 -51 -29 -181 -46 -288 -17 -107 -37 -235 -45 -285
-19 -114 -65 -416 -65 -421 0 -2 79 -4 175 -4 173 0 175 0 179 23 3 12 22 130
42 262 20 132 42 263 50 291 15 56 75 132 133 168 58 37 148 66 202 66 57 0
50 -10 102 153 34 106 34 108 14 119 -12 6 -50 9 -92 6 -95 -6 -164 -39 -239
-114 l-59 -59 8 75 c3 41 7 80 8 85 1 6 -64 11 -175 13 l-176 2 -16 -92z"/>
<path d="M4530 4313 c0 -6 -19 -32 -42 -59 -23 -27 -29 -38 -14 -24 36 33 70
79 62 87 -3 4 -6 2 -6 -4z"/>
<path d="M4640 4265 c0 -5 5 -17 10 -25 5 -8 10 -10 10 -5 0 6 -5 17 -10 25
-5 8 -10 11 -10 5z"/>
<path d="M4635 4200 c-4 -12 -13 -19 -20 -16 -9 3 -11 -2 -7 -16 4 -15 2 -19
-7 -14 -8 6 -11 2 -9 -10 2 -14 -2 -18 -17 -16 -13 2 -16 0 -8 -5 8 -6 9 -14
3 -23 -17 -27 -10 -33 8 -9 31 40 75 120 69 125 -3 3 -8 -4 -12 -16z"/>
<path d="M4405 4176 c-11 -8 -14 -15 -8 -19 6 -4 16 0 23 8 17 21 8 28 -15 11z"/>
<path d="M4561 4154 c0 -11 3 -14 6 -6 3 7 2 16 -1 19 -3 4 -6 -2 -5 -13z"/>
<path d="M4350 4140 c-8 -5 -10 -10 -5 -10 6 0 17 5 25 10 8 5 11 10 5 10 -5
0 -17 -5 -25 -10z"/>
<path d="M4280 4100 c-9 -6 -10 -10 -3 -10 6 0 15 5 18 10 8 12 4 12 -15 0z"/>
<path d="M4235 4080 c-3 -6 1 -7 9 -4 18 7 21 14 7 14 -6 0 -13 -4 -16 -10z"/>
<path d="M4185 4060 c-13 -6 -15 -9 -5 -9 8 0 22 4 30 9 18 12 2 12 -25 0z"/>
<path d="M4470 4045 c0 -7 30 -13 34 -7 3 4 -4 9 -15 9 -10 1 -19 0 -19 -2z"/>
<path d="M4505 4020 c-16 -17 -24 -30 -19 -30 13 0 59 48 52 55 -2 3 -17 -9
-33 -25z"/>
<path d="M4063 4023 c9 -2 25 -2 35 0 9 3 1 5 -18 5 -19 0 -27 -2 -17 -5z"/>
<path d="M4360 4021 c0 -6 5 -13 10 -16 6 -3 10 1 10 9 0 9 -4 16 -10 16 -5 0
-10 -4 -10 -9z"/>
<path d="M3843 4003 c31 -2 83 -2 115 0 31 2 5 3 -58 3 -63 0 -89 -1 -57 -3z"/>
<path d="M3928 3983 c6 -2 18 -2 25 0 6 3 1 5 -13 5 -14 0 -19 -2 -12 -5z"/>
<path d="M3904 3955 c17 -9 37 -14 45 -12 10 3 8 5 -6 6 -12 0 -25 6 -28 11
-3 6 -14 10 -23 10 -11 0 -6 -6 12 -15z"/>
<path d="M4390 3960 c0 -5 5 -10 11 -10 5 0 7 5 4 10 -3 6 -8 10 -11 10 -2 0
-4 -4 -4 -10z"/>
<path d="M3988 3933 c7 -3 16 -2 19 1 4 3 -2 6 -13 5 -11 0 -14 -3 -6 -6z"/>
<path d="M7275 3901 c-18 -5 -22 -9 -11 -10 12 -1 16 -6 12 -17 -3 -9 -6 -20
-6 -25 0 -6 -4 -8 -8 -5 -12 7 -68 -58 -93 -105 -20 -41 -25 -74 -9 -64 6 3
10 13 10 22 0 31 42 99 76 122 60 42 152 31 184 -22 l20 -32 0 27 c0 22 -8 29
-45 45 -25 10 -45 21 -45 24 0 4 -18 3 -40 -1 -22 -4 -40 -4 -40 0 0 4 14 10
31 14 17 3 28 10 24 16 -10 16 51 12 64 -4 10 -12 8 -15 -6 -19 -10 -2 -2 -2
17 0 51 6 94 -34 88 -82 -2 -18 -1 -32 3 -29 11 6 22 -28 21 -66 l-1 -35 10
28 c13 34 2 135 -12 102 -6 -16 -8 -14 -8 13 -1 24 -10 42 -32 63 -17 16 -36
26 -41 23 -6 -4 -14 -1 -18 6 -10 16 -102 22 -145 11z"/>
<path d="M8109 3883 c-5 -14 -8 -31 -6 -37 3 -6 9 5 15 24 6 19 11 27 11 17 1
-10 5 -16 9 -13 13 8 39 -13 26 -21 -7 -5 -9 -24 -5 -53 l7 -45 6 45 c4 25 10
59 14 76 6 30 5 31 -30 32 -31 1 -38 -3 -47 -25z"/>
<path d="M5613 3855 c-7 -27 -15 -77 -18 -110 l-5 -60 15 58 c8 33 12 63 9 68
-3 6 -1 16 6 24 6 8 10 26 8 42 -2 23 -5 20 -15 -22z"/>
<path d="M5645 3889 c-4 -6 -5 -12 -2 -15 2 -3 7 2 10 11 7 17 1 20 -8 4z"/>
<path d="M5875 3892 c-6 -4 -10 -17 -9 -29 1 -21 -3 -23 -57 -23 -36 0 -59 5
-62 13 -3 7 -6 5 -6 -5 -1 -16 9 -18 79 -18 77 0 80 1 79 23 0 21 -1 21 -9 2
-8 -18 -9 -17 -9 7 -1 22 3 26 16 21 11 -4 14 -3 9 5 -8 14 -17 15 -31 4z"/>
<path d="M7183 3859 c-24 -17 -43 -35 -43 -40 0 -5 -9 -19 -19 -31 -33 -35
-51 -149 -30 -193 7 -15 8 -12 4 14 -7 48 5 137 17 119 7 -10 9 -10 7 2 -3 32
1 51 11 45 5 -3 12 5 16 19 7 31 55 76 61 59 3 -7 9 -13 14 -13 4 0 6 7 3 15
-4 10 0 15 11 15 9 0 13 5 10 10 -9 15 -15 12 -62 -21z"/>
<path d="M5685 3856 c-16 -11 -17 -18 -8 -47 9 -28 11 -30 12 -11 1 15 9 26
21 29 11 3 17 9 14 14 -3 5 -10 7 -15 4 -5 -4 -9 -2 -9 4 0 5 6 12 13 14 6 3
7 6 1 6 -5 1 -19 -5 -29 -13z"/>
<path d="M5795 3860 c3 -5 11 -10 16 -10 6 0 7 5 4 10 -3 6 -11 10 -16 10 -6
0 -7 -4 -4 -10z"/>
<path d="M7450 3835 c8 -10 13 -29 12 -43 -3 -15 0 -22 7 -18 20 13 12 55 -11
67 -21 11 -22 11 -8 -6z"/>
<path d="M8142 3790 c0 -14 2 -19 5 -12 2 6 2 18 0 25 -3 6 -5 1 -5 -13z"/>
<path d="M5665 3759 c2 -19 3 -42 4 -51 1 -10 5 -18 11 -18 5 0 7 6 4 14 -4
11 12 14 82 15 49 1 90 4 93 6 2 3 -37 5 -87 5 -81 0 -92 2 -92 18 0 9 -4 23
-9 31 -6 9 -8 2 -6 -20z"/>
<path d="M6030 3784 c-35 -13 -60 -28 -60 -37 0 -5 7 -7 15 -4 8 4 17 1 21 -5
4 -6 3 -8 -4 -4 -6 3 -13 2 -16 -3 -4 -5 18 -7 53 -4 79 7 111 -1 112 -30 1
-18 2 -19 6 -4 3 10 -3 27 -13 38 -9 10 -13 19 -8 19 5 0 1 5 -9 11 -10 6 -21
8 -24 5 -4 -3 -1 -6 6 -6 7 0 9 -4 6 -10 -12 -19 -115 -8 -115 12 0 7 17 8 42
5 30 -4 38 -3 27 4 -10 8 4 9 45 4 67 -6 77 -11 56 -26 -13 -9 -12 -10 2 -5
20 6 35 -10 16 -17 -10 -4 -11 -7 0 -18 10 -11 12 -10 12 4 0 9 6 17 12 17 7
0 0 12 -14 27 -23 23 -37 27 -90 30 -35 1 -70 0 -78 -3z"/>
<path d="M6363 3771 c-20 -10 -23 -15 -12 -21 8 -5 12 -23 11 -45 -2 -24 2
-37 13 -41 8 -3 15 -15 15 -25 0 -10 7 -19 15 -19 18 0 20 16 3 23 -7 3 1 6
17 7 29 2 29 2 -8 12 -42 11 -56 30 -38 52 9 11 9 15 -1 20 -7 3 3 3 22 1 19
-3 58 -6 85 -7 46 -3 50 -1 53 21 3 15 0 21 -8 16 -6 -4 -9 -13 -7 -20 4 -9
-5 -10 -36 -4 -23 5 -62 8 -86 9 -55 0 -48 9 21 26 l53 13 -43 -2 c-24 -1 -55
-8 -69 -16z"/>
<path d="M6480 3780 c0 -5 10 -10 23 -10 18 0 19 2 7 10 -19 13 -30 13 -30 0z"/>
<path d="M6630 3769 c0 -11 5 -19 11 -19 5 0 7 -4 4 -10 -3 -5 -2 -10 4 -10 5
0 14 -19 20 -42 l11 -43 -6 40 c-3 22 -6 46 -6 53 -1 6 -5 12 -10 12 -16 0 -8
19 10 22 12 3 9 6 -10 10 -23 4 -28 2 -28 -13z"/>
<path d="M6893 3782 c-44 -3 -59 -24 -27 -36 9 -4 14 -13 10 -22 -4 -10 -2
-13 6 -8 8 5 9 2 5 -10 -4 -10 -7 -20 -7 -22 0 -3 -4 -2 -10 1 -5 3 -10 1 -10
-5 0 -17 -53 -121 -58 -115 -8 8 -9 58 -1 75 4 8 12 27 20 43 8 18 15 23 20
16 4 -7 6 0 6 14 -1 15 -4 27 -7 27 -3 0 -20 -31 -38 -70 -31 -68 -32 -71 -17
-101 15 -28 15 -32 1 -48 -9 -10 -16 -24 -16 -32 -1 -10 -5 -8 -15 5 -8 11
-15 15 -15 9 0 -6 -3 -20 -6 -30 -5 -15 -4 -15 5 -3 5 8 13 11 16 8 4 -4 1
-16 -7 -27 -8 -12 -18 -18 -22 -14 -4 4 -4 1 -1 -8 4 -10 -2 -15 -21 -17 -24
-2 -26 1 -20 24 7 27 7 26 -20 -5 -15 -18 -41 -39 -58 -47 -29 -13 -29 -14 -4
-9 15 3 30 0 33 -5 4 -6 16 -3 32 10 33 26 44 17 13 -10 -13 -11 -18 -20 -12
-20 23 0 91 94 146 202 32 62 74 139 93 171 19 32 33 59 31 60 -1 1 -22 1 -45
-1z m27 -18 c0 -3 -6 -12 -14 -19 -17 -18 -29 -8 -13 11 12 14 27 18 27 8z
m-254 -369 c-26 -19 -42 -19 -26 0 7 8 20 15 29 15 13 -1 13 -3 -3 -15z"/>
<path d="M7648 3782 c-28 -3 -45 -32 -32 -53 3 -6 2 -21 -4 -32 -9 -18 -42
-194 -42 -221 0 -3 14 -6 30 -6 26 0 30 4 31 28 l1 27 9 -30 c7 -24 7 -20 4
18 -3 26 -1 46 3 44 4 -3 14 17 22 43 11 34 12 46 4 43 -7 -2 -15 -20 -18 -39
-4 -19 -11 -34 -16 -34 -6 0 -13 -18 -16 -41 -4 -22 -13 -43 -21 -46 -23 -9
-27 5 -9 31 9 15 12 27 6 31 -13 8 -13 25 -1 25 5 0 12 -8 14 -17 3 -10 5 -2
6 17 0 26 -2 31 -9 20 -8 -13 -10 -12 -10 4 0 23 22 99 30 106 4 3 10 13 13
24 6 14 3 17 -8 12 -13 -4 -14 -2 -5 14 5 10 22 20 37 22 16 2 24 5 18 8 -5 3
-22 4 -37 2z"/>
<path d="M7758 3782 c-9 -4 -27 -20 -39 -37 -13 -16 -17 -25 -8 -18 8 7 20 8
28 4 12 -8 8 -10 -51 -26 -5 -2 -12 -3 -18 -4 -12 -1 -13 -12 0 -31 8 -12 14
-10 37 12 16 15 43 31 61 34 24 5 32 12 31 28 0 20 -1 21 -9 1 -8 -17 -9 -16
-9 9 -1 21 3 27 14 22 8 -3 15 -1 15 4 0 11 -27 12 -52 2z m10 -43 c-3 -8 -7
-3 -11 10 -4 17 -3 21 5 13 5 -5 8 -16 6 -23z"/>
<path d="M7948 3783 c-9 -2 -15 -10 -12 -16 2 -7 -8 -20 -23 -29 -19 -12 -23
-18 -11 -18 9 0 18 5 20 12 3 7 10 8 17 4 11 -7 11 -10 0 -18 -10 -7 -8 -8 6
-3 11 4 39 12 63 17 24 6 41 12 39 14 -2 3 -24 0 -48 -5 -28 -6 -48 -6 -53 0
-9 8 12 13 52 12 6 -1 12 4 12 9 0 5 -14 7 -32 4 -31 -6 -31 -5 -10 6 18 9 31
9 53 1 16 -6 29 -8 29 -3 0 16 -61 24 -102 13z"/>
<path d="M8313 3770 c-18 -11 -33 -25 -33 -30 0 -6 -5 -8 -12 -4 -7 4 -8 3 -4
-4 10 -17 26 -15 26 3 0 16 3 17 65 17 l40 0 -40 8 c-22 4 -31 8 -20 9 11 1
27 6 35 11 31 20 -24 10 -57 -10z"/>
<path d="M8395 3780 c-7 -11 -2 -13 35 -11 l25 1 -25 -11 c-14 -6 -20 -13 -13
-16 7 -2 22 1 34 8 l22 12 -24 13 c-29 16 -46 17 -54 4z"/>
<path d="M8618 3783 c-11 -3 -18 -14 -18 -26 1 -20 2 -21 14 -4 7 9 18 17 25
17 6 0 11 5 11 10 0 10 -3 11 -32 3z"/>
<path d="M8658 3770 c-14 -15 -14 -19 -3 -24 8 -3 17 3 20 15 9 28 2 32 -17 9z"/>
<path d="M8753 3783 c-7 -2 -13 -10 -13 -18 0 -7 -7 -18 -15 -25 -13 -11 -15
-10 -10 6 3 10 -2 3 -11 -16 -14 -30 -18 -32 -23 -16 -7 17 -9 16 -29 -11 -24
-33 -28 -58 -12 -68 15 -9 12 -34 -5 -51 -17 -18 -20 -38 -4 -28 8 4 9 -4 4
-27 -4 -19 -9 -37 -12 -41 -6 -12 -33 -9 -33 3 0 5 -5 7 -12 3 -8 -5 -9 0 -3
17 10 32 19 105 12 99 -6 -6 -15 -42 -24 -102 l-6 -38 42 0 c22 0 41 3 41 8 1
41 24 152 36 179 17 35 58 63 94 63 16 0 20 6 20 35 0 34 -8 40 -37 28z m-73
-90 c-1 -20 -28 -55 -34 -45 -8 13 10 52 24 52 6 0 10 -3 10 -7z"/>
<path d="M6605 3763 c4 -10 14 -47 21 -83 8 -36 17 -72 21 -80 4 -8 8 -19 8
-25 6 -42 19 -86 25 -90 5 -3 6 3 3 14 -2 10 0 35 5 55 6 21 7 38 1 42 -5 3
-9 -7 -10 -23 l-1 -28 -9 30 c-5 17 -11 50 -13 75 -2 25 -5 52 -6 60 -1 11 -4
9 -10 -5 -8 -18 -9 -18 -9 5 -2 38 -12 70 -23 70 -6 0 -7 -8 -3 -17z m42 -105
c-3 -8 -6 -5 -6 6 -1 11 2 17 5 13 3 -3 4 -12 1 -19z"/>
<path d="M7903 3763 c-15 -5 -17 -23 -4 -23 5 0 11 7 15 15 3 8 4 15 3 14 -1
0 -8 -3 -14 -6z"/>
<path d="M6686 3720 c4 -25 7 -54 8 -65 2 -26 25 -67 26 -44 0 9 -3 19 -6 22
-4 4 -8 24 -10 45 -2 22 -8 50 -14 63 -8 19 -9 15 -4 -21z"/>
<path d="M7130 3740 c0 -11 4 -20 9 -20 5 0 7 9 4 20 -3 11 -7 20 -9 20 -2 0
-4 -9 -4 -20z"/>
<path d="M7656 3745 c4 -8 7 -15 9 -15 1 0 8 7 15 15 10 13 9 15 -8 15 -15 0
-20 -5 -16 -15z"/>
<path d="M8151 3734 c0 -11 3 -14 6 -6 3 7 2 16 -1 19 -3 4 -6 -2 -5 -13z"/>
<path d="M8472 3738 c-15 -15 -16 -28 -2 -28 6 0 9 6 8 13 -2 6 3 11 10 9 8
-1 11 2 7 8 -8 13 -8 13 -23 -2z"/>
<path d="M6306 3718 c-3 -13 -6 -32 -6 -43 0 -17 2 -18 11 -5 9 12 10 11 6 -7
-6 -28 0 -32 33 -22 24 7 24 7 3 8 -23 1 -27 12 -26 74 0 24 -14 21 -21 -5z"/>
<path d="M7864 3728 c-48 -69 -62 -138 -38 -197 14 -35 18 -39 28 -26 10 14
15 14 38 2 23 -11 24 -15 10 -23 -14 -9 -14 -11 2 -17 9 -4 15 -3 12 1 -9 15
20 39 57 45 20 3 37 2 37 -3 0 -12 -28 -20 -47 -14 -15 5 -16 4 -3 -5 13 -9
13 -11 -2 -11 -9 0 -19 -4 -23 -9 -10 -18 58 8 82 31 36 34 30 48 -14 33 -39
-13 -93 -3 -93 18 0 6 -3 7 -7 4 -3 -4 2 -16 12 -27 15 -17 16 -20 3 -20 -9 0
-21 7 -28 15 -7 8 -16 13 -20 10 -5 -3 -11 1 -13 7 -3 7 -6 2 -7 -12 -1 -23
-2 -23 -11 -7 -6 10 -9 27 -6 38 3 10 1 17 -4 13 -11 -7 -11 -6 2 56 6 27 14
50 19 50 4 0 13 14 19 30 11 32 9 38 -5 18z"/>
<path d="M8075 3730 c3 -5 8 -10 11 -10 2 0 4 5 4 10 0 6 -5 10 -11 10 -5 0
-7 -4 -4 -10z"/>
<path d="M8298 3715 c-6 -14 -14 -21 -17 -16 -3 5 -6 -15 -6 -45 0 -58 4 -64
23 -36 11 14 26 17 102 14 50 -2 90 1 90 6 0 5 -8 19 -19 31 -18 21 -19 21
-24 1 -5 -18 -13 -20 -81 -20 -84 0 -92 7 -56 53 12 16 16 28 10 32 -5 3 -15
-6 -22 -20z"/>
<path d="M8620 3736 c0 -2 7 -6 15 -10 8 -3 15 -1 15 4 0 6 -7 10 -15 10 -8 0
-15 -2 -15 -4z"/>
<path d="M7452 3710 c0 -14 2 -19 5 -12 2 6 2 18 0 25 -3 6 -5 1 -5 -13z"/>
<path d="M8056 3705 c19 -29 20 -30 28 -9 3 8 2 13 -3 10 -5 -3 -11 1 -15 9
-3 8 -10 15 -16 15 -6 0 -3 -11 6 -25z"/>
<path d="M8436 3715 c4 -8 8 -15 10 -15 2 0 4 7 4 15 0 8 -4 15 -10 15 -5 0
-7 -7 -4 -15z"/>
<path d="M8596 3696 c-4 -21 -5 -41 -2 -44 3 -3 7 6 8 19 0 13 4 4 8 -21 l7
-45 1 40 c0 22 -3 51 -7 65 -7 23 -8 22 -15 -14z"/>
<path d="M8500 3698 c0 -16 5 -28 10 -28 13 0 13 20 0 40 -8 12 -10 9 -10 -12z"/>
<path d="M5625 3700 c-3 -5 -1 -10 4 -10 6 0 11 5 11 10 0 6 -2 10 -4 10 -3 0
-8 -4 -11 -10z"/>
<path d="M7880 3699 c0 -5 4 -9 9 -9 5 0 11 -7 13 -15 2 -13 5 -12 15 4 10 16
9 19 -13 24 -13 2 -24 0 -24 -4z"/>
<path d="M8112 3687 c-1 -16 -6 -25 -12 -22 -6 3 -10 -4 -10 -17 0 -17 3 -19
9 -9 17 27 32 0 27 -47 l-5 -47 13 50 c8 28 14 61 15 75 l0 25 -14 -25 -13
-25 -5 35 c-3 30 -4 31 -5 7z"/>
<path d="M5798 3693 c6 -2 18 -2 25 0 6 3 1 5 -13 5 -14 0 -19 -2 -12 -5z"/>
<path d="M8215 3658 c-28 -71 -3 -142 62 -176 12 -7 28 -12 35 -11 7 0 -1 7
-17 14 -17 7 -39 23 -49 34 -18 20 -18 22 -3 39 18 20 22 42 9 42 -5 0 -8 10
-6 23 4 33 5 34 14 12 8 -18 9 -18 9 -2 1 11 -8 21 -19 24 -22 6 -26 19 -8 25
8 3 9 6 1 11 -7 4 -18 -10 -28 -35z m25 -73 c0 -3 -4 -13 -9 -23 -8 -13 -10
-7 -10 28 0 37 2 41 9 22 5 -12 10 -25 10 -27z"/>
<path d="M5690 3670 c20 -13 100 -13 100 0 0 6 -26 10 -57 10 -41 0 -54 -3
-43 -10z"/>
<path d="M5820 3670 c-23 -7 -23 -8 -3 -9 12 -1 25 4 28 9 3 6 5 10 3 9 -2 -1
-14 -5 -28 -9z"/>
<path d="M5580 3647 c0 -14 -4 -37 -10 -51 -5 -15 -6 -26 -1 -26 5 0 12 18 16
39 5 32 10 39 23 34 18 -7 17 -5 -10 16 -16 12 -18 11 -18 -12z"/>
<path d="M5640 3655 c-7 -9 -10 -18 -6 -22 3 -3 6 -1 6 6 0 7 5 9 10 6 6 -3
10 1 10 9 0 20 -4 20 -20 1z"/>
<path d="M6049 3647 c7 -7 14 -8 21 -1 6 6 2 10 -12 11 -16 2 -18 -1 -9 -10z"/>
<path d="M6090 3650 c0 -5 7 -7 15 -4 8 4 15 8 15 10 0 2 -7 4 -15 4 -8 0 -15
-4 -15 -10z"/>
<path d="M7125 3649 c-4 -6 -4 -13 -1 -16 3 -4 6 -1 6 5 0 6 8 13 18 15 15 4
15 5 0 6 -9 0 -20 -4 -23 -10z"/>
<path d="M6015 3640 c3 -5 8 -10 11 -10 2 0 4 5 4 10 0 6 -5 10 -11 10 -5 0
-7 -4 -4 -10z"/>
<path d="M6170 3640 c0 -5 -23 -10 -51 -10 -31 0 -48 -4 -44 -10 3 -6 17 -7
30 -4 12 3 26 1 29 -5 8 -12 -34 -111 -46 -111 -5 0 -8 -5 -8 -12 0 -6 8 -4
19 6 14 13 24 14 45 6 15 -5 24 -14 21 -20 -3 -5 -1 -10 5 -10 7 0 9 23 4 74
-4 50 -3 75 5 80 14 9 15 26 1 26 -5 0 -10 -4 -10 -10z m-13 -80 c-1 -22 -6
-40 -10 -40 -4 0 -11 0 -16 0 -5 0 -2 18 6 40 9 22 18 40 19 40 2 0 2 -18 1
-40z"/>
<path d="M6206 3628 c-3 -13 -5 -39 -5 -58 1 -27 3 -22 9 20 9 58 7 77 -4 38z"/>
<path d="M6450 3639 c-12 -8 -10 -9 9 -4 16 5 21 4 17 -4 -4 -6 -4 -11 1 -10
23 4 29 -5 27 -45 -2 -57 -15 -78 -47 -79 -15 -1 -27 -5 -27 -10 0 -4 -27 -6
-60 -6 -42 1 -60 6 -60 14 0 8 -6 15 -12 18 -8 2 -9 8 -4 13 5 5 11 4 13 -3 3
-8 20 -13 41 -12 21 0 30 3 22 6 -8 2 -25 9 -37 15 -28 14 -49 5 -56 -22 -16
-63 198 -54 236 10 27 44 22 85 -12 109 -34 24 -32 24 -51 10z m67 -76 c-3
-10 -5 -4 -5 12 0 17 2 24 5 18 2 -7 2 -21 0 -30z"/>
<path d="M7471 3636 c-8 -10 -9 -16 -1 -21 5 -3 13 1 16 10 9 22 -1 29 -15 11z"/>
<path d="M7506 3628 c-9 -12 -15 -32 -15 -43 1 -19 1 -19 6 0 3 10 12 29 20
42 20 30 9 30 -11 1z"/>
<path d="M7893 3610 c0 -25 2 -35 4 -22 2 12 2 32 0 45 -2 12 -4 2 -4 -23z"/>
<path d="M8056 3609 c-5 -33 -3 -46 11 -61 10 -11 17 -22 15 -24 -1 -3 2 -12
7 -22 9 -15 10 -15 11 5 0 12 -4 24 -9 27 -4 3 -6 18 -3 32 3 19 1 25 -7 20
-6 -4 -8 -12 -5 -18 4 -7 2 -8 -5 -4 -6 4 -10 15 -7 24 2 10 7 27 11 40 3 12
2 22 -3 22 -5 0 -12 -19 -16 -41z"/>
<path d="M8500 3635 c0 -12 -17 -15 -89 -15 -50 0 -92 -3 -94 -7 -3 -5 40 -8
94 -8 96 -1 99 0 99 22 0 13 -2 23 -5 23 -3 0 -5 -7 -5 -15z"/>
<path d="M7153 3605 c-1 -19 3 -32 8 -29 5 3 9 0 9 -6 0 -15 26 -41 34 -33 12
12 6 -13 -6 -26 -9 -9 -9 -12 -1 -7 6 3 13 1 15 -4 2 -8 11 -8 28 0 23 9 23
10 3 6 -13 -2 -26 0 -29 5 -3 5 26 9 65 9 41 0 71 -4 71 -10 0 -6 -15 -8 -40
-4 -40 7 -46 2 -34 -29 11 -29 146 16 188 62 11 12 17 24 14 27 -3 3 -12 -1
-19 -9 -12 -13 -15 -11 -24 15 l-10 29 -22 -23 -23 -24 23 -1 c17 -2 19 0 7 7
-13 8 -12 10 3 10 28 0 20 -36 -13 -60 -32 -23 -42 -17 -12 7 15 13 14 14 -12
8 -27 -6 -28 -5 -15 11 13 16 12 16 -8 6 -41 -22 -173 -7 -158 18 3 4 -2 13
-10 20 -8 7 -15 23 -15 36 0 38 -16 28 -17 -11z m172 -115 c4 -6 -5 -10 -19
-10 -14 0 -26 5 -26 10 0 6 9 10 19 10 11 0 23 -4 26 -10z"/>
<path d="M5953 3619 c-8 -8 -5 -18 10 -35 l21 -24 26 25 c14 14 32 25 40 25 7
0 11 3 7 6 -11 12 -67 -7 -67 -23 0 -13 -3 -13 -15 -3 -20 16 -19 27 3 33 13
4 13 5 2 6 -9 0 -21 -4 -27 -10z"/>
<path d="M6345 3620 c3 -5 11 -10 16 -10 6 0 7 5 4 10 -3 6 -11 10 -16 10 -6
0 -7 -4 -4 -10z"/>
<path d="M7632 3610 c0 -14 2 -19 5 -12 2 6 2 18 0 25 -3 6 -5 1 -5 -13z"/>
<path d="M7873 3595 c0 -22 2 -30 4 -17 2 12 2 30 0 40 -3 9 -5 -1 -4 -23z"/>
<path d="M6435 3610 c4 -6 -7 -8 -27 -5 l-33 5 35 -13 c38 -15 53 -52 28 -69
-9 -6 -3 -7 17 -3 39 9 44 14 23 29 -10 7 -15 16 -11 19 3 4 -1 9 -10 13 -9 3
-13 12 -10 20 3 8 0 14 -7 14 -6 0 -8 -4 -5 -10z"/>
<path d="M8100 3577 c0 -25 4 -48 9 -51 8 -5 3 84 -5 93 -2 2 -4 -16 -4 -42z"/>
<path d="M5597 3590 c-3 -11 -1 -20 4 -20 5 0 9 9 9 20 0 11 -2 20 -4 20 -2 0
-6 -9 -9 -20z"/>
<path d="M5635 3570 c-8 -45 -1 -60 23 -59 14 0 13 2 -3 9 -13 5 18 8 85 8 78
-1 94 -3 60 -8 l-45 -7 48 -1 c35 -2 47 2 47 13 0 11 -20 15 -102 17 l-103 3
3 33 c5 45 -5 40 -13 -8z"/>
<path d="M8601 3584 c0 -11 3 -14 6 -6 3 7 2 16 -1 19 -3 4 -6 -2 -5 -13z"/>
<path d="M5924 3564 c-9 -37 11 -73 50 -89 37 -15 93 -8 72 10 -14 12 -58 16
-50 4 3 -5 0 -9 -5 -9 -6 0 -11 5 -11 11 0 6 -6 9 -14 6 -8 -3 -18 4 -24 17
-8 18 -7 27 6 41 16 17 16 17 -2 11 -16 -5 -17 -4 -6 9 8 10 9 15 1 15 -6 0
-14 -12 -17 -26z"/>
<path d="M6181 3564 c0 -11 3 -14 6 -6 3 7 2 16 -1 19 -3 4 -6 -2 -5 -13z"/>
<path d="M6761 3568 c-1 -19 -26 -24 -36 -8 -8 14 -25 13 -25 -2 0 -6 3 -8 7
-5 3 4 12 -1 19 -11 12 -16 14 -16 30 0 9 9 14 22 11 30 -4 9 -6 7 -6 -4z"/>
<path d="M7100 3564 c0 -5 7 -19 15 -30 9 -12 14 -14 15 -6 0 9 7 11 23 7 21
-6 21 -6 3 9 -14 11 -22 13 -27 5 -4 -8 -10 -5 -18 7 -6 11 -11 14 -11 8z"/>
<path d="M5557 3540 c-4 -14 -6 -36 -6 -50 1 -22 2 -20 10 8 6 19 9 41 7 50
-3 12 -6 10 -11 -8z"/>
<path d="M5597 3553 c-11 -10 -8 -33 4 -33 6 0 9 6 6 14 -3 8 -1 17 6 20 7 3
8 5 1 5 -6 1 -14 -2 -17 -6z"/>
<path d="M8288 3544 c6 -12 25 -24 43 -28 48 -9 69 -5 25 5 -22 5 -49 17 -59
27 -19 16 -19 16 -9 -4z"/>
<path d="M5973 3543 c-21 -8 -14 -25 7 -18 11 4 20 2 20 -4 0 -6 13 -11 29
-11 16 0 32 -6 34 -12 3 -8 6 -6 6 5 1 11 -6 17 -23 17 -13 0 -29 7 -36 15
-13 16 -17 17 -37 8z"/>
<path d="M8450 3530 c-13 -8 -13 -10 2 -10 9 0 20 5 23 10 8 13 -5 13 -25 0z"/>
<path d="M5728 3513 c7 -3 16 -2 19 1 4 3 -2 6 -13 5 -11 0 -14 -3 -6 -6z"/>
<path d="M6392 3505 c-7 -8 -9 -15 -4 -15 5 0 15 7 22 15 16 19 -1 19 -18 0z"/>
<path d="M7144 3511 c7 -11 46 -35 46 -28 0 3 -12 12 -26 22 -15 9 -23 12 -20
6z"/>
<path d="M8275 3510 c3 -5 8 -10 11 -10 2 0 4 5 4 10 0 6 -5 10 -11 10 -5 0
-7 -4 -4 -10z"/>
<path d="M8408 3513 c7 -3 16 -2 19 1 4 3 -2 6 -13 5 -11 0 -14 -3 -6 -6z"/>
<path d="M6192 3490 c0 -14 2 -19 5 -12 2 6 2 18 0 25 -3 6 -5 1 -5 -13z"/>
<path d="M8051 3497 c-1 -21 21 -18 27 4 3 12 2 12 -6 0 -8 -11 -10 -11 -15 0
-4 10 -6 8 -6 -4z"/>
<path d="M8465 3500 c4 -6 11 -8 16 -5 14 9 11 15 -7 15 -8 0 -12 -5 -9 -10z"/>
<path d="M5576 3485 c-4 -10 23 -13 130 -14 123 -2 155 5 124 24 -5 3 -10 1
-10 -4 0 -6 -14 -11 -31 -11 -17 0 -28 4 -24 10 4 7 -3 7 -20 0 -33 -12 -90
-13 -132 -1 -23 7 -33 6 -37 -4z"/>
<path d="M6707 3477 c-4 -10 -7 -26 -7 -35 1 -15 2 -15 11 1 6 10 9 25 7 35
-3 16 -4 15 -11 -1z"/>
<path d="M8105 3480 c-3 -5 -1 -10 4 -10 6 0 11 5 11 10 0 6 -2 10 -4 10 -3 0
-8 -4 -11 -10z"/>
<path d="M7210 3476 c0 -2 11 -6 25 -8 14 -3 25 -1 25 3 0 5 -11 9 -25 9 -14
0 -25 -2 -25 -4z"/>
<path d="M8340 3471 c8 -5 33 -5 55 -1 40 8 40 8 -15 9 -35 0 -50 -3 -40 -8z"/>
<path d="M6591 3333 c-1 -16 3 -20 19 -16 11 3 20 10 20 15 0 5 6 6 13 2 9 -5
9 -4 0 6 -10 10 -15 11 -27 1 -11 -9 -15 -9 -19 1 -3 7 -6 3 -6 -9z"/>
</g>
</svg>
